{"title":"Babe 1and2 DVDrip DuoBox English Klam","uid":5806594,"size":2942765878,"categoryP":"video","categoryS":"movies","magnet":"?xt=urn:btih:14b7884c561a215b765d5c7ad7dc6665c90e2652&amp;dn=Babe+1and2+DVDrip+DuoBox+English+Klam&amp;tr=udp%3A%2F%2Ftracker.openbittorrent.com%3A80&amp;tr=udp%3A%2F%2Fopen.demonii.com%3A1337&amp;tr=udp%3A%2F%2Ftracker.coppersurfer.tk%3A6969&amp;tr=udp%3A%2F%2Fexodus.desync.com%3A6969","seeders":0,"leechers":1,"uploader":"Klambake","files":-1,"time":1283464546,"description":"Babe 1995, http://www.imdb.com/title/tt0112431\n\nWith: James Cromwell, de stemmen van Christine Cavanaugh en Danny Mann\n\nFarmer Hoggett wins a runt piglet at a local fair and young Babe, as the piglet decides to call himself, befriends and learns about all the other creatures on the farm. He becomes special friends with one of the sheepdogs, Fly. With Fly's help, and Farmer Hoggett's intuition, Babe embarks on a career in sheepherding with some surprising and spectacular results.\n\nBabe is a little pig who doesn't quite know his place in the world. With a bunch of odd friends, like Ferdinand the duck who thinks he is a rooster and Fly the dog he calls mom, Babe realizes that he has the makings to become the greatest sheep pig of all time, and Farmer Hogget Knows it. With the help of the sheep dogs Babe learns that a pig can be anything that he wants to be.\n\nBabe 2 Pig in the City, http://www.imdb.com/title/tt0120595\n\nWith: Magda Szubanski, James Cromwell en de stem van Elizabeth Daily\n\nBabe, fresh from his victory in the sheepherding contest, returns to Farmer Hoggett's farm, but after Farmer Hoggett is injured and unable to work, Babe has to go to the big city to save the farm.\n\nGeneral:\n\nComplete name                    : Babe 1and2\\Babe 1.avi\nFormat                           : AVI\nFormat/Info                      : Audio Video Interleave\nFile size                        : 1.37 GiB\nDuration                         : 1h 28mn\nOverall bit rate                 : 2 225 Kbps\n\nVideo:\n\nFormat                           : MPEG-4 Visual\nFormat profile                   : Simple@L3\nFormat settings, BVOP            : No\nFormat settings, QPel            : No\nFormat settings, GMC             : No warppoints\nFormat settings, Matrix          : Default (H.263)\nCodec ID                         : XVID\nCodec ID/Hint                    : XviD\nDuration                         : 1h 28mn\nBit rate                         : 1 830 Kbps\nWidth                            : 720 pixels\nHeight                           : 400 pixels\nDisplay aspect ratio             : 16:9\nFrame rate                       : 25.000 fps\nColor space                      : YUV\nChroma subsampling               : 4:2:0\nBit depth                        : 8 bits\nScan type                        : Progressive\nBits/(Pixel*Frame)               : 0.254\nStream size                      : 1.13 GiB (82%)\nWriting library                  : XviD 1.1.2 (UTC 2006-11-01)\n\nAudio:\n\nFormat                           : AC-3\nFormat/Info                      : Audio Coding 3\nMode extension                   : CM (complete main)\nCodec ID                         : 2000\nDuration                         : 1h 28mn\nBit rate mode                    : Constant\nBit rate                         : 384 Kbps\nChannel(s)                       : 6 channels\nChannel positions                : Front: L C R, Side: L R, LFE\nSampling rate                    : 48.0 KHz\nStream size                      : 242 MiB (17%)\nAlignment                        : Aligned on interleaves\nInterleave, duration             : 32 ms (0.80 video frame)\nInterleave, preload duration     : 384 ms\n","torrent":{"xt":"urn:btih:14b7884c561a215b765d5c7ad7dc6665c90e2652","amp;dn":"Babe+1and2+DVDrip+DuoBox+English+Klam","amp;tr":["udp%3A%2F%2Ftracker.openbittorrent.com%3A80","udp%3A%2F%2Fopen.demonii.com%3A1337","udp%3A%2F%2Ftracker.coppersurfer.tk%3A6969","udp%3A%2F%2Fexodus.desync.com%3A6969"],"infoHash":"14b7884c561a215b765d5c7ad7dc6665c90e2652","infoHashBuffer":{"type":"Buffer","data":[20,183,136,76,86,26,33,91,118,93,92,122,215,220,102,101,201,14,38,82]},"announce":[],"urlList":[]}}